<svg id="Livello_1" data-name="Livello 1" xmlns="http://www.w3.org/2000/svg" viewBox="0 0 24.71 22.24">
  <defs>
    <style>
      .cls-1 {
        fill: #5ebfbc;
      }
    </style>
  </defs>
  <g>
    <g>
      <path class="cls-1" d="M12.18,16.64h.35a.57.57,0,0,1,.57.57v2.59a.58.58,0,0,1-.58.58h-.35a.58.58,0,0,1-.58-.58V17.22A.58.58,0,0,1,12.18,16.64Z"/>
      <path class="cls-1" d="M15.14,21.13v2.52h-.28V21.13h.28m0-1.22h-.36a1.18,1.18,0,0,0-1.18,1.19v2.59a1.18,1.18,0,0,0,1.18,1.18h.36a1.18,1.18,0,0,0,1.18-1.18V21.1a1.18,1.18,0,0,0-1.18-1.19Z" transform="translate(-2.65 -3.88)"/>
    </g>
    <path class="cls-1" d="M26,5.28V19.47H4.05V5.28H26m0-1.4H4A1.39,1.39,0,0,0,2.65,5.27V19.48A1.39,1.39,0,0,0,4,20.87H26a1.39,1.39,0,0,0,1.39-1.39V5.27A1.39,1.39,0,0,0,26,3.88Z" transform="translate(-2.65 -3.88)"/>
    <path class="cls-1" d="M21.84,23.63H8.16a1.25,1.25,0,1,0,0,2.49H21.84a1.25,1.25,0,1,0,0-2.49Z" transform="translate(-2.65 -3.88)"/>
  </g>
  <g>
    <g>
      <path class="cls-1" d="M15,14.71a.58.58,0,0,1-.57-.57V8.36a.57.57,0,0,1,1.14,0v5.78A.58.58,0,0,1,15,14.71Z" transform="translate(-2.65 -3.88)"/>
      <path class="cls-1" d="M15,8.28a.09.09,0,0,1,.08.08v5.78a.08.08,0,0,1-.16,0V8.36A.09.09,0,0,1,15,8.28m0-1a1.06,1.06,0,0,0-1.06,1.06v5.78a1.06,1.06,0,1,0,2.12,0V8.36A1.06,1.06,0,0,0,15,7.3Z" transform="translate(-2.65 -3.88)"/>
    </g>
    <g>
      <path class="cls-1" d="M15,17a.54.54,0,0,1-.4-.16.56.56,0,0,1,0-.81l4.08-4.09a.6.6,0,0,1,.41-.16.59.59,0,0,1,.4.16.58.58,0,0,1,0,.81L15.4,16.8A.55.55,0,0,1,15,17Z" transform="translate(-2.65 -3.88)"/>
      <path class="cls-1" d="M19.09,12.23l.05,0a.08.08,0,0,1,0,.11l-4.09,4.09-.05,0-.06,0a.08.08,0,0,1,0-.11L19,12.25l.06,0m0-1a1.06,1.06,0,0,0-.76.31l-4.08,4.08a1.08,1.08,0,0,0,0,1.51h0a1.07,1.07,0,0,0,.75.3,1.08,1.08,0,0,0,.75-.3l4.09-4.09a1.07,1.07,0,0,0,0-1.5h0a1.05,1.05,0,0,0-.75-.31Z" transform="translate(-2.65 -3.88)"/>
    </g>
    <g>
      <path class="cls-1" d="M15,17a.55.55,0,0,1-.4-.16l-4.09-4.09a.58.58,0,0,1,0-.81.59.59,0,0,1,.4-.16.6.6,0,0,1,.41.16L15.4,16a.56.56,0,0,1,.17.4.57.57,0,0,1-.17.41A.54.54,0,0,1,15,17Z" transform="translate(-2.65 -3.88)"/>
      <path class="cls-1" d="M10.91,12.23l.06,0,4.09,4.09a.08.08,0,0,1,0,.11l-.06,0-.05,0-4.09-4.09a.08.08,0,0,1,0-.11l.05,0m0-1a1.05,1.05,0,0,0-.75.31h0a1.07,1.07,0,0,0,0,1.5l4.09,4.09a1.08,1.08,0,0,0,.75.3,1.07,1.07,0,0,0,.75-.3h0a1.08,1.08,0,0,0,0-1.51l-4.08-4.08a1.06,1.06,0,0,0-.76-.31Z" transform="translate(-2.65 -3.88)"/>
    </g>
  </g>
</svg>
