<svg id="Livello_1" data-name="Livello 1" xmlns="http://www.w3.org/2000/svg" viewBox="0 0 28.7 16.21">
  <defs>
    <style>
      .cls-1 {
        fill: #5fbfbc;
        stroke: #fff;
        stroke-miterlimit: 10;
        stroke-width: 0.25px;
      }

      .cls-2 {
        fill: #5ebfbc;
      }

      .cls-3 {
        fill: #fff;
      }
    </style>
  </defs>
  <g>
    <path class="cls-1" d="M7.24,12V6.64h3.23V7.5H8.27V8.83h2.1v.84H8.27v1.49h2.2V12Z" transform="translate(-0.19 -3.19)"/>
    <path class="cls-1" d="M14.23,12l0-.55a3.25,3.25,0,0,1-.27.26,1.32,1.32,0,0,1-.32.2,1.42,1.42,0,0,1-.38.14,2,2,0,0,1-.44,0,1.6,1.6,0,0,1-.56-.1,1.15,1.15,0,0,1-.41-.26,1.13,1.13,0,0,1-.25-.41,1.72,1.72,0,0,1-.08-.52,1.26,1.26,0,0,1,.12-.55A1.14,1.14,0,0,1,12,9.84a1.8,1.8,0,0,1,.64-.28,3.35,3.35,0,0,1,.9-.11h.54V9.2a.92.92,0,0,0,0-.29.54.54,0,0,0-.15-.22.8.8,0,0,0-.26-.14,1.48,1.48,0,0,0-.39-.05,3,3,0,0,0-.73.09,3.58,3.58,0,0,0-.7.23V8a3.8,3.8,0,0,1,.69-.19,3.74,3.74,0,0,1,.82-.08,3.15,3.15,0,0,1,.8.09,1.36,1.36,0,0,1,.54.26,1.07,1.07,0,0,1,.32.44,1.72,1.72,0,0,1,.1.62V12Zm-.15-1.84h-.61a1.37,1.37,0,0,0-.43.05.78.78,0,0,0-.29.13.59.59,0,0,0-.16.2.69.69,0,0,0-.05.24.47.47,0,0,0,.16.39.69.69,0,0,0,.45.13.8.8,0,0,0,.44-.15,3.49,3.49,0,0,0,.49-.43Z" transform="translate(-0.19 -3.19)"/>
    <path class="cls-1" d="M19.61,10.78a1.09,1.09,0,0,1-.16.61,1.18,1.18,0,0,1-.42.41,1.62,1.62,0,0,1-.59.23,3.08,3.08,0,0,1-.68.08,6.68,6.68,0,0,1-.82,0,6.78,6.78,0,0,1-.7-.12V11a3.61,3.61,0,0,0,.77.24,4.61,4.61,0,0,0,.72.07,1.05,1.05,0,0,0,.59-.13.35.35,0,0,0,.15-.5.35.35,0,0,0-.15-.15,2.11,2.11,0,0,0-.32-.14,5.13,5.13,0,0,0-.54-.17,4.75,4.75,0,0,1-.54-.2,1.34,1.34,0,0,1-.38-.26.89.89,0,0,1-.23-.34A1.27,1.27,0,0,1,16.24,9a1.13,1.13,0,0,1,.11-.48,1.08,1.08,0,0,1,.35-.39,1.54,1.54,0,0,1,.56-.27,2.78,2.78,0,0,1,.8-.1,4.9,4.9,0,0,1,.7,0l.54.09V8.7a4,4,0,0,0-.67-.16,3.35,3.35,0,0,0-.63,0,.89.89,0,0,0-.49.11.34.34,0,0,0-.19.31.33.33,0,0,0,0,.17.46.46,0,0,0,.14.14,1.86,1.86,0,0,0,.31.14,3.77,3.77,0,0,0,.51.17,3.82,3.82,0,0,1,.61.22,1.55,1.55,0,0,1,.4.27.78.78,0,0,1,.21.33A1.18,1.18,0,0,1,19.61,10.78Z" transform="translate(-0.19 -3.19)"/>
    <path class="cls-1" d="M23.23,11.55a6.65,6.65,0,0,1-.45,1,3.38,3.38,0,0,1-.52.68,2,2,0,0,1-.63.41,2.13,2.13,0,0,1-.78.14l-.22,0a1.07,1.07,0,0,1-.25,0v-.85l.11,0,.13,0h.28a.87.87,0,0,0,.32-.06,1.27,1.27,0,0,0,.27-.18,1.56,1.56,0,0,0,.23-.28A2,2,0,0,0,21.9,12L20.25,7.84h1.11l.87,2.36.26.77.25-.73.88-2.4h1.07Z" transform="translate(-0.19 -3.19)"/>
    <path class="cls-1" d="M12.58,13.42l2.33,2.9-2.33,2.89-.8-.76.54-.66a5.69,5.69,0,0,1,.92-.92h-6V15.76h6a5.21,5.21,0,0,1-.93-.92l-.54-.65Z" transform="translate(-0.19 -3.19)"/>
    <path class="cls-1" d="M17.93,16.75v-.84h1.91v2.87a3.31,3.31,0,0,1-.77.25,4.77,4.77,0,0,1-.87.08,2.89,2.89,0,0,1-1-.17,2.12,2.12,0,0,1-.76-.51,2.4,2.4,0,0,1-.47-.85,3.52,3.52,0,0,1-.17-1.17,4,4,0,0,1,.17-1.2,2.64,2.64,0,0,1,.51-.9,2.35,2.35,0,0,1,.82-.56,3.24,3.24,0,0,1,1.12-.19,3.51,3.51,0,0,1,.72.07,6.36,6.36,0,0,1,.7.16v1a4.17,4.17,0,0,0-.68-.23,3.07,3.07,0,0,0-.74-.1,1.53,1.53,0,0,0-.66.14,1.21,1.21,0,0,0-.49.37,1.55,1.55,0,0,0-.29.59,2.87,2.87,0,0,0-.1.8,3.61,3.61,0,0,0,.07.77,1.63,1.63,0,0,0,.26.58,1,1,0,0,0,.45.37,1.47,1.47,0,0,0,.66.13h.17l.13,0,.12,0,.11,0V16.75Z" transform="translate(-0.19 -3.19)"/>
    <path class="cls-1" d="M24.36,16.61c0,.07,0,.16,0,.27a3,3,0,0,1,0,.31H21.59a1.42,1.42,0,0,0,.08.48,1,1,0,0,0,.61.57,1.43,1.43,0,0,0,.48.07,3.77,3.77,0,0,0,.65,0,5.14,5.14,0,0,0,.72-.15v.8l-.35.08c-.12,0-.25.05-.38.06l-.4.05h-.39a2.59,2.59,0,0,1-.86-.13,1.65,1.65,0,0,1-1-1.06,2.74,2.74,0,0,1-.14-.9,3,3,0,0,1,.14-.93,2.21,2.21,0,0,1,.39-.71,1.76,1.76,0,0,1,.62-.46,2,2,0,0,1,.81-.16,2.15,2.15,0,0,1,.79.13,1.65,1.65,0,0,1,.57.39,1.7,1.7,0,0,1,.35.58A2.27,2.27,0,0,1,24.36,16.61Zm-1-.14a1.35,1.35,0,0,0-.06-.43,1.09,1.09,0,0,0-.18-.3.76.76,0,0,0-.26-.18.88.88,0,0,0-.33-.06.82.82,0,0,0-.62.26,1.13,1.13,0,0,0-.28.71Z" transform="translate(-0.19 -3.19)"/>
    <path class="cls-1" d="M27.77,19V16.3q0-.69-.51-.69a.74.74,0,0,0-.49.21,3.61,3.61,0,0,0-.49.56V19h-1V14.85h.87l0,.61a3.58,3.58,0,0,1,.26-.29,1.91,1.91,0,0,1,.3-.22,1.37,1.37,0,0,1,.35-.15,1.73,1.73,0,0,1,.41,0,1.37,1.37,0,0,1,.56.1,1.08,1.08,0,0,1,.4.3,1.43,1.43,0,0,1,.24.46,2.18,2.18,0,0,1,.08.6V19Z" transform="translate(-0.19 -3.19)"/>
  </g>
  <g>
    <path class="cls-2" d="M7,18.86a.13.13,0,0,1-.12-.08L.33,3.49a.11.11,0,0,1,0-.12.13.13,0,0,1,.1-.06H2.67a.12.12,0,0,1,.11.08L9.35,18.68a.17.17,0,0,1,0,.12.17.17,0,0,1-.11.06Z" transform="translate(-0.19 -3.19)"/>
    <path class="cls-3" d="M2.67,3.44,9.23,18.73H7L.44,3.44H2.67m0-.25H.44a.26.26,0,0,0-.21.11.29.29,0,0,0,0,.24L6.77,18.83A.25.25,0,0,0,7,19H9.23a.24.24,0,0,0,.21-.11.23.23,0,0,0,0-.24L2.9,3.34a.25.25,0,0,0-.23-.15Z" transform="translate(-0.19 -3.19)"/>
  </g>
  <g>
    <path class="cls-2" d="M5.38,9.12a.13.13,0,0,1-.09,0,.13.13,0,0,1,0-.1L5.4,7.39l-1.3.92a.09.09,0,0,1-.07,0H4a.1.1,0,0,1-.08-.05L3.31,7.22a.16.16,0,0,1,0-.1.12.12,0,0,1,.07-.07l1.45-.67L3.37,5.72a.14.14,0,0,1-.07-.08.17.17,0,0,1,0-.1l.61-1A.16.16,0,0,1,4,4.43H4l.07,0,1.3.93L5.25,3.79a.13.13,0,0,1,0-.1.1.1,0,0,1,.09,0H6.64a.11.11,0,0,1,.09,0,.1.1,0,0,1,0,.1L6.61,5.38l1.3-.93.08,0H8a.1.1,0,0,1,.08.06l.61,1a.12.12,0,0,1,0,.1.14.14,0,0,1-.07.08L7.2,6.38l1.44.67a.12.12,0,0,1,.07.07.11.11,0,0,1,0,.1l-.61,1A.08.08,0,0,1,8,8.33H8a.11.11,0,0,1-.08,0l-1.3-.92L6.76,9a.1.1,0,0,1,0,.1.15.15,0,0,1-.09,0Z" transform="translate(-0.19 -3.19)"/>
    <path class="cls-3" d="M6.64,3.77h0m0,0L6.46,5.64,8,4.55l.6,1L6.9,6.38l1.69.78L8,8.21,6.46,7.13,6.64,9H5.38l.17-1.86L4,8.21,3.42,7.16l1.7-.78L3.42,5.6l.61-1L5.55,5.64,5.38,3.77H6.64m0-.25H5.38a.25.25,0,0,0-.19.09.26.26,0,0,0-.06.19l.12,1.32L4.18,4.35A.3.3,0,0,0,4,4.3H4a.26.26,0,0,0-.17.12l-.6,1.05a.24.24,0,0,0,0,.2.23.23,0,0,0,.14.15l1.2.55-1.2.55a.25.25,0,0,0-.14.16.24.24,0,0,0,0,.2l.6,1A.3.3,0,0,0,4,8.46H4a.28.28,0,0,0,.15,0l1.07-.77L5.13,9a.26.26,0,0,0,.06.19.27.27,0,0,0,.19.08H6.64a.23.23,0,0,0,.18-.08A.23.23,0,0,0,6.89,9L6.76,7.65l1.08.77a.24.24,0,0,0,.15,0H8a.25.25,0,0,0,.16-.12l.61-1a.28.28,0,0,0,0-.2.25.25,0,0,0-.14-.16L7.5,6.38l1.19-.55a.23.23,0,0,0,.14-.15.27.27,0,0,0,0-.2L8.2,4.43A.22.22,0,0,0,8,4.31H8a.25.25,0,0,0-.15,0l-1.08.77.13-1.29V3.77a.25.25,0,0,0-.25-.25Zm0,.5Z" transform="translate(-0.19 -3.19)"/>
  </g>
</svg>
