<svg xmlns="http://www.w3.org/2000/svg" viewBox="0 0 22.83 26.06">
  <defs>
    <style>
      .cls-1, .cls-3, .cls-4 {
        fill: #5fbfbd;
      }

      .cls-2 {
        fill: #2e4f9d;
      }

      .cls-3, .cls-4 {
        stroke: #5fbfbd;
        stroke-linecap: round;
        stroke-linejoin: round;
      }

      .cls-3 {
        stroke-width: 3.23px;
      }

      .cls-4 {
        stroke-width: 0.1px;
      }
    </style>
  </defs>
  <g id="Livello_2" data-name="Livello 2">
    <g id="Livello_2-2" data-name="Livello 2">
      <path class="cls-1" d="M17.7,1a.66.66,0,0,1,.65.66h0V24.32a.65.65,0,0,1-.65.66H1.7a.65.65,0,0,1-.62-.61V1.74a.65.65,0,0,1,.66-.66h16M17.7,0H1.7A1.73,1.73,0,0,0,0,1.69V24.32a1.74,1.74,0,0,0,1.74,1.74h16a1.73,1.73,0,0,0,1.7-1.69V1.74A1.74,1.74,0,0,0,17.66,0h0Z"/>
      <g>
        <rect class="cls-2" x="2.83" y="5.46" width="12.65" height="0.6" rx="0.14"/>
        <path class="cls-1" d="M15.21,5.72v.07H3.1V5.72H15.21m.14-.54H3a.42.42,0,0,0-.4.41v.34a.42.42,0,0,0,.4.4H15.35a.42.42,0,0,0,.4-.4V5.59A.42.42,0,0,0,15.35,5.18Z"/>
      </g>
      <g>
        <polygon class="cls-2" points="2.89 8.61 2.83 8.07 10.74 8.01 10.8 8.56 10.74 8.61 2.89 8.61"/>
        <path class="cls-1" d="M10.52,8.28v.06H3.1V8.28h7.42m.21-.54H2.89a.32.32,0,0,0-.33.32h0v.5a.32.32,0,0,0,.33.32h7.89a.32.32,0,0,0,.32-.32v-.5a.32.32,0,0,0-.32-.32h0Z"/>
      </g>
      <g>
        <rect class="cls-2" x="2.83" y="10.24" width="12.65" height="0.6" rx="0.14"/>
        <path class="cls-1" d="M15.21,10.51v.06H3.1v-.06H15.21m.14-.54H3a.41.41,0,0,0-.4.4v.33a.41.41,0,0,0,.4.41H15.35a.41.41,0,0,0,.4-.41v-.33A.41.41,0,0,0,15.35,10Z"/>
      </g>
      <g>
        <polygon class="cls-2" points="2.89 13.4 2.83 12.85 10.74 12.79 10.8 13.33 10.74 13.4 2.89 13.4"/>
        <path class="cls-1" d="M10.52,13v.06H3.1V13h7.42m.21-.54H2.89a.33.33,0,0,0-.33.32h0v.49a.31.31,0,0,0,.31.32h7.91a.31.31,0,0,0,.32-.3v-.51a.32.32,0,0,0-.31-.33h-.06Z"/>
      </g>
      <line class="cls-3" x1="10.52" y1="18.31" x2="21.22" y2="11.71"/>
      <polygon class="cls-4" points="7.93 20.13 10.7 19.88 9.1 17.61 7.93 20.13"/>
    </g>
  </g>
</svg>
