<svg id="Livello_1" data-name="Livello 1" xmlns="http://www.w3.org/2000/svg" viewBox="0 0 18.07 27.13">
  <defs>
    <style>
      .cls-1 {
        fill: #fff;
      }

      .cls-2 {
        fill: #2b4e9d;
      }
    </style>
  </defs>
  <g>
    <rect class="cls-1" x="0.5" y="0.5" width="17.07" height="23.26" rx="1.11"/>
    <path class="cls-2" d="M22.42,3.87a.61.61,0,0,1,.61.61v21a.61.61,0,0,1-.61.61H7.58A.61.61,0,0,1,7,25.52v-21a.61.61,0,0,1,.61-.61H22.42m0-1H7.58A1.61,1.61,0,0,0,6,4.48v21a1.61,1.61,0,0,0,1.61,1.61H22.42A1.61,1.61,0,0,0,24,25.52v-21a1.61,1.61,0,0,0-1.61-1.61Z" transform="translate(-5.97 -2.87)"/>
  </g>
  <g>
    <rect class="cls-2" x="2.66" y="5.11" width="11.74" height="0.56" rx="0.13"/>
    <path class="cls-2" d="M20.11,8.22v.06H8.88V8.22H20.11m.13-.5H8.75a.38.38,0,0,0-.37.38v.31a.38.38,0,0,0,.37.37H20.24a.38.38,0,0,0,.37-.37V8.1a.38.38,0,0,0-.37-.38Z" transform="translate(-5.97 -2.87)"/>
  </g>
  <g>
    <polygon class="cls-2" points="2.71 8.03 2.66 7.53 10 7.47 10.05 7.98 10 8.03 2.71 8.03"/>
    <path class="cls-2" d="M15.76,10.59v.06H8.88v-.06h6.88m.2-.5H8.68a.3.3,0,0,0-.3.3v.46a.3.3,0,0,0,.3.3H16a.3.3,0,0,0,.3-.3v-.46a.3.3,0,0,0-.3-.3Z" transform="translate(-5.97 -2.87)"/>
  </g>
  <g>
    <rect class="cls-2" x="2.66" y="9.54" width="11.74" height="0.56" rx="0.13"/>
    <path class="cls-2" d="M20.11,12.66v.06H8.88v-.06H20.11m.13-.5H8.75a.38.38,0,0,0-.37.37v.31a.38.38,0,0,0,.37.38H20.24a.38.38,0,0,0,.37-.38v-.31a.38.38,0,0,0-.37-.37Z" transform="translate(-5.97 -2.87)"/>
  </g>
  <g>
    <polygon class="cls-2" points="2.71 12.47 2.66 11.96 10 11.91 10.05 12.41 10 12.47 2.71 12.47"/>
    <path class="cls-2" d="M15.76,15v.06H8.88V15h6.88m.2-.5H8.68a.3.3,0,0,0-.3.31v.45a.29.29,0,0,0,.3.3H16a.29.29,0,0,0,.3-.3v-.45a.3.3,0,0,0-.3-.31Z" transform="translate(-5.97 -2.87)"/>
  </g>
  <g>
    <g>
      <path class="cls-2" d="M15,29.38a.73.73,0,0,1-.72-.73V21.3a.72.72,0,1,1,1.44,0v7.35A.73.73,0,0,1,15,29.38Z" transform="translate(-5.97 -2.87)"/>
      <path class="cls-2" d="M15,21.2a.11.11,0,0,1,.1.1v7.35a.1.1,0,0,1-.2,0V21.3a.11.11,0,0,1,.1-.1M15,20a1.35,1.35,0,0,0-1.35,1.34v7.35a1.35,1.35,0,0,0,2.7,0V21.3A1.35,1.35,0,0,0,15,20Z" transform="translate(-5.97 -2.87)"/>
    </g>
    <g>
      <path class="cls-2" d="M20.19,24.35a.71.71,0,0,1-.51-.21L14.49,19A.73.73,0,0,1,15,17.71a.75.75,0,0,1,.51.21l5.2,5.2a.72.72,0,0,1,0,1A.72.72,0,0,1,20.19,24.35Z" transform="translate(-5.97 -2.87)"/>
      <path class="cls-2" d="M15,18.34l.07,0,5.19,5.2a.1.1,0,0,1,0,.14.08.08,0,0,1-.07,0,.09.09,0,0,1-.07,0l-5.19-5.19a.11.11,0,0,1,0-.15l.07,0m0-1.25a1.35,1.35,0,0,0-1,2.3l5.2,5.19a1.32,1.32,0,0,0,1,.4,1.35,1.35,0,0,0,1-2.3L16,17.48a1.35,1.35,0,0,0-.95-.39Z" transform="translate(-5.97 -2.87)"/>
    </g>
    <g>
      <path class="cls-2" d="M9.81,24.35a.72.72,0,0,1-.52-.21.72.72,0,0,1,0-1l5.2-5.2a.75.75,0,0,1,.51-.21A.73.73,0,0,1,15.51,19l-5.19,5.19A.71.71,0,0,1,9.81,24.35Z" transform="translate(-5.97 -2.87)"/>
      <path class="cls-2" d="M15,18.34l.07,0a.11.11,0,0,1,0,.15L9.88,23.7a.09.09,0,0,1-.07,0,.08.08,0,0,1-.07,0,.1.1,0,0,1,0-.14l5.19-5.2.07,0m0-1.25a1.35,1.35,0,0,0-.95.39l-5.2,5.2a1.35,1.35,0,0,0,1,2.3,1.32,1.32,0,0,0,.95-.4L16,19.39a1.35,1.35,0,0,0-1-2.3Z" transform="translate(-5.97 -2.87)"/>
    </g>
  </g>
</svg>
