<svg id="Livello_1" data-name="Livello 1" xmlns="http://www.w3.org/2000/svg" viewBox="0 0 18.07 27.13">
  <defs>
    <style>
      .cls-1 {
        fill: #4ecdc4;
      }

      .cls-2 {
        fill: #2b4e9d;
      }
    </style>
  </defs>
  <path class="cls-1" d="M22.42,3.87a.61.61,0,0,1,.61.61v21a.61.61,0,0,1-.61.61H7.58A.61.61,0,0,1,7,25.52v-21a.61.61,0,0,1,.61-.61H22.42m0-1H7.58A1.61,1.61,0,0,0,6,4.48v21a1.61,1.61,0,0,0,1.61,1.61H22.42A1.61,1.61,0,0,0,24,25.52v-21a1.61,1.61,0,0,0-1.61-1.61Z" transform="translate(-5.97 -2.87)"/>
  <g>
    <rect class="cls-2" x="2.66" y="5.11" width="11.74" height="0.56" rx="0.13"/>
    <path class="cls-1" d="M20.11,8.22v.06H8.88V8.22H20.11m.13-.5H8.75a.38.38,0,0,0-.37.38v.31a.38.38,0,0,0,.37.37H20.24a.38.38,0,0,0,.37-.37V8.1a.38.38,0,0,0-.37-.38Z" transform="translate(-5.97 -2.87)"/>
  </g>
  <g>
    <polygon class="cls-2" points="2.71 8.03 2.66 7.53 10 7.47 10.05 7.98 10 8.03 2.71 8.03"/>
    <path class="cls-1" d="M15.76,10.59v.06H8.88v-.06h6.88m.2-.5H8.68a.3.3,0,0,0-.3.3v.46a.3.3,0,0,0,.3.3H16a.3.3,0,0,0,.3-.3v-.46a.3.3,0,0,0-.3-.3Z" transform="translate(-5.97 -2.87)"/>
  </g>
  <g>
    <rect class="cls-2" x="2.66" y="9.54" width="11.74" height="0.56" rx="0.13"/>
    <path class="cls-1" d="M20.11,12.66v.06H8.88v-.06H20.11m.13-.5H8.75a.38.38,0,0,0-.37.37v.31a.38.38,0,0,0,.37.38H20.24a.38.38,0,0,0,.37-.38v-.31a.38.38,0,0,0-.37-.37Z" transform="translate(-5.97 -2.87)"/>
  </g>
  <g>
    <polygon class="cls-2" points="2.71 12.47 2.66 11.96 10 11.91 10.05 12.41 10 12.47 2.71 12.47"/>
    <path class="cls-1" d="M15.76,15v.06H8.88V15h6.88m.2-.5H8.68a.3.3,0,0,0-.3.31v.45a.29.29,0,0,0,.3.3H16a.29.29,0,0,0,.3-.3v-.45a.3.3,0,0,0-.3-.31Z" transform="translate(-5.97 -2.87)"/>
  </g>
  <g>
    <g>
      <path class="cls-1" d="M15,29.51a.87.87,0,0,1-.86-.86V21.3a.86.86,0,0,1,1.72,0v7.35A.87.87,0,0,1,15,29.51Z" transform="translate(-5.97 -2.87)"/>
      <path class="cls-1" d="M15,20.94a.37.37,0,0,1,.37.36v7.35a.37.37,0,1,1-.74,0V21.3a.37.37,0,0,1,.37-.36m0-1a1.35,1.35,0,0,0-1.35,1.34v7.35a1.35,1.35,0,0,0,2.7,0V21.3A1.35,1.35,0,0,0,15,20Z" transform="translate(-5.97 -2.87)"/>
    </g>
    <g>
      <path class="cls-1" d="M20.19,24.49a.84.84,0,0,1-.6-.25L14.39,19a.84.84,0,0,1-.25-.6.85.85,0,0,1,.86-.86.88.88,0,0,1,.61.25L20.8,23a.88.88,0,0,1,0,1.22A.86.86,0,0,1,20.19,24.49Z" transform="translate(-5.97 -2.87)"/>
      <path class="cls-1" d="M15,18.07a.34.34,0,0,1,.26.11l5.19,5.19a.36.36,0,0,1,0,.52.36.36,0,0,1-.26.1.39.39,0,0,1-.26-.1l-5.19-5.2a.36.36,0,0,1,0-.51.34.34,0,0,1,.26-.11m0-1a1.35,1.35,0,0,0-1,2.3l5.2,5.19a1.32,1.32,0,0,0,1,.4,1.35,1.35,0,0,0,1-2.3L16,17.48a1.35,1.35,0,0,0-.95-.39Z" transform="translate(-5.97 -2.87)"/>
    </g>
    <g>
      <path class="cls-1" d="M9.81,24.49A.86.86,0,0,1,9.2,23l5.2-5.19a.84.84,0,0,1,.6-.25.85.85,0,0,1,.86.86.84.84,0,0,1-.25.6l-5.2,5.2A.84.84,0,0,1,9.81,24.49Z" transform="translate(-5.97 -2.87)"/>
      <path class="cls-1" d="M15,18.07a.34.34,0,0,1,.26.11.35.35,0,0,1,0,.51l-5.19,5.2a.39.39,0,0,1-.26.1.36.36,0,0,1-.26-.1.36.36,0,0,1,0-.52l5.19-5.19a.34.34,0,0,1,.26-.11m0-1a1.35,1.35,0,0,0-.95.39l-5.2,5.2a1.35,1.35,0,0,0,1,2.3,1.32,1.32,0,0,0,.95-.4L16,19.39a1.35,1.35,0,0,0-1-2.3Z" transform="translate(-5.97 -2.87)"/>
    </g>
  </g>
</svg>
